<svg width="357" height="86" viewBox="0 0 357 86" fill="none" xmlns="http://www.w3.org/2000/svg">
<path d="M355.52 6.29846C355.793 6.33766 356.047 6.14785 356.086 5.8745C356.125 5.60116 355.935 5.34779 355.662 5.30858L355.52 6.29846ZM0.911312 80.7655C42.9807 88.1326 72.9018 85.2455 97.4524 77.2243C121.986 69.2087 141.129 56.0714 161.605 43.0251C182.091 29.9731 203.947 16.9854 233.981 9.15914C264.016 1.3328 302.262 -1.33967 355.52 6.29846L355.662 5.30858C302.303 -2.34401 263.919 0.324588 233.729 8.19145C203.538 16.0584 181.575 29.116 161.068 42.1818C140.552 55.2534 121.528 68.3063 97.1418 76.2738C72.7726 84.2357 43.0206 87.1244 1.08381 79.7805L0.911312 80.7655Z" fill="#1A202C"/>
</svg>
